<svg width="146.34mm" height="94.771mm" viewBox="0 0 14633.99 9477.066" fill="none" xmlns="http://www.w3.org/2000/svg">
  <defs>
    <style type="text/css">
      <![CDATA[
    .str0 {stroke:#2B2A29;stroke-width:7.62}
    .fil1 {fill:#34759d}
    .fil0 {fill:#264796}
    .fil2 {fill:#264795}
   ]]>
    </style>
  </defs>

  <g transform="translate(-3868.6 -2907.9)">
    <g clip-rule="evenodd" fill="#34759d" fill-rule="evenodd" shape-rendering="geometricPrecision">
      <path class="fil1" d="m4497.6 9367.9 10 2976 837-3v-2785c-306-83-572-141-847-188z" image-rendering="optimizeQuality"/>
      <path class="fil1" d="m5631.6 9647.9 7 1614h567c895-420 531-1440-574-1614z" image-rendering="optimizeQuality"/>
      <polygon class="fil1" transform="translate(757.58 1572.9)" points="6938 10769 6741 10057 7092 10057 7315 10775 8205 10768 7538 8513 6619 8384 7035 9763 6655 9763 6403 8930 5772 10765" image-rendering="optimizeQuality"/>
      <path class="fil1" d="m9192.6 10144c292 26 593 43 905 50.001v847h402l7-854 775 14 15 2132-805 8v-1005l-402 14.001-7 995-904-4z" image-rendering="optimizeQuality"/>
      <path class="fil1" d="m13769 5736.9-8 3238c-1200-49-1834-860-1700-1868 132-980 931-1414 1708-1370zm-5160-42 11 3747c393 38 791 67 1185 90l16-3162 510-23 25 3183c402 22 804 25 1207 17l-13-3989c-998-56-1959-6-2941 137zm5730 96v3505c373-33 766-98 1201-158v-3169c-401-79-801-147-1201-178zm1681 293 17 2740c1138-200 1768-805 1604-1494-117-491-817-1068-1621-1246zm-11274 328-3 2386 1826-1071 4.9998 1404c452 94 883 166 1334 204l3.9999-3607-1996 1265v-907c-414 105-811 202-1170 326zm1337-3504c-161-2-266.01 44.018-361.01 130.02l-1849 2880 287.01-111 1665-2582c89-117 210.01-134 367.01-134h25.787l-1685.8 2610 276-78.031 1547-2398c75.556-100.46 176.35-127 302.67-132.55 33.56 1.9081 67.616 6.4262 98.806 14.986l-1540.5 2411.6 265.98-62.994 1415.3-2222.3 198.49 296.83-1225.8 1839.5 255.02-47.026 1084.3-1622.6 153.27 229.18-855.56 1330.4 248-45.992 720.27-1115.8 863 1290.7c-1481.7 188.53-2972.4 522.14-4469.2 1002.2v2425c2516.5 669.8 4993.3 1007.5 7432.3 1004.3l1567.7 2344.7c99 148 282.03 213.99 488.03 213.99l472.58-1.912c18.925 1.155 38.034 1.912 57.413 1.912l424.11-1.499c38.797 5.177 78.903 7.693 119.89 7.494l515.32-1.861c19.988 1.212 40.186 1.96 60.668 1.861l500.23-1.809c19.703 1.175 39.608 1.906 59.79 1.809l564.98-2.016c138 0 250.01-110 330.01-225l2041-2927-302 109.97-1878 2704c-61 88-116.98 156.01-191.98 156.01l-260.97-0.465c11.105-14 21.769-28.273 31.936-42.581l1918-2683-287.99 85.008-1769 2485c-57.974 81.35-110.66 146.9-177.77 155.08l-67.231-0.103c-63.527 0-129.21-20.248-185.31-49.764l1817.4-2475.2-269.03 56.017-1683.8 2301.5-157.51-244.43 1386.3-1958-248 45.01-1242.4 1751.5-174.77-271.2 973.12-1392.3-262.98 45.992-817.26 1180-955.76-1483.2c1613.6-152.83 3210.4-459.02 4791-921.75l9.973-2362c-2522.3-855.49-5093.9-1261.4-7698.8-1213.2l-1371.2-2127.8c-61-95-188.98-173.01-285.98-173.01l-518.99 4.2375c-14.078-2.7268-27.852-4.2375-41.031-4.2375l-532.63 4.6508c-14.566-2.9427-28.81-4.6508-42.375-4.6508l-614.12 5.0125c-12.296-1.9452-24.322-2.9972-35.863-2.9972l-745.02-2.0153c-33.384 0-63.814 2.3267-92.759 6.0462zm1183 188.98 65.216 0.1032c16.17 2.2693 31.809 5.6383 46.974 9.6637l-175.7 263.7-162.94-243.76c65.351-24.138 140.73-29.714 226.45-29.714zm1613.8 0.8268 124.23 0.2067c91-2 222.99-0.9938 267.99 68.006l1320.2 2047.6c-113.61 3.158-227.33 7.4141-341.06 12.299zm-525.7 0.052 89.917 0.1551c91-2 222.99-0.9938 267.99 68.006l1334.4 2069.6c-116.78 6.0759-233.62 12.93-350.52 20.826l-1389.3-2155.9c15.444-1.2359 31.207-2.2325 47.491-2.739zm-518.11 0.1035 33.021 0.052c8.6963-0.191 18.935 0.08 28.267 0l-117.87 183.35-104.23-158.85c48.13-15.885 101.68-22.409 160.82-24.546zm287.89 53.072c4.499 4.626 8.6757 9.547 12.144 14.986l1357.5 2105.1c-128.89 9.8565-257.86 20.85-386.9 32.918l-1214.8-1851.3 143.14-221.8c26.686-34.782 56.284-60.626 88.832-79.943zm-602.65 82.63 146.09 222-199.99 310.99-151.15-226.14zm258.49 392.84 1117.3 1698.1c-120.48 12.378-241.02 25.538-361.63 39.842l-955.19-1429zm5720.5 6097.3 1045.4 1621.4-181.95 262.72-1196.9-1857.4c111.22-8.1965 222.35-17.12 333.42-26.768zm-533.82 40.721 1289.2 1999.5-189.76 273.99-1451.5-2252.6c117.48-6.1116 234.82-13.157 352.12-20.877zm-555.47 30.644 1532.1 2375.9c0.277 0.428 0.6 0.813 0.878 1.24-17.635 11.034-35.939 18.56-55.449 20.877l-50.436-0.103c-128 0-264.99-81.993-313.99-156.99l-1461.9-2228c116.35-3.556 232.64-7.796 348.82-12.919zm-560.07 18.5 1547.2 2351.4c6.426 9.77 13.264 19.162 20.412 28.215l-110.43-0.206c-127 0-264-81.993-313-156.99l-1481.8-2216.8c112.64-1.0607 225.18-3.0612 337.65-5.5811zm2801.4 1697.1 174.05 269.91-183.3 258.43c-0.279 0.391-0.549 0.747-0.827 1.137l-172.7-267.99zm-291.3 416.77 157.04 243.55c0.487 0.752 1.06 1.422 1.551 2.17-21.482 13.201-43.951 21.158-68.523 20.826l-130.17-0.207c-40.967-7.675-81.117-22.296-117.62-40.824 0.234-0.335 0.542-0.648 0.775-0.982zm569.58 14.779 147.07 228.1c-21.184 15.936-43.287 26.769-67.334 29.765l-52.245-0.103c-60.654 0-123.08-18.74-177.46-46.095 0.46-0.645 0.989-1.268 1.447-1.912z" image-rendering="optimizeQuality"/>
    </g>
  </g>
</svg>
